#N canvas 579 344 635 458 12;
#X obj 51 98 mtof;
#X obj 52 155 osc~;
#X obj 53 270 *~;
#X obj 169 117 bng 15 250 50 0 empty empty empty 17 7 0 10 -262144
-1 -1;
#X obj 247 132 del 10;
#X obj 247 155 pack 0 500;
#X obj 247 178 line~;
#X obj 247 201 *~;
#X obj 247 224 *~;
#X msg 169 139 1 5;
#X floatatom 336 129 5 0 0 0 - - -;
#X text 56 177 replace raindrop synthesis;
#X obj 50 50 inlet;
#X obj 52 336 outlet~;
#X obj 295 59 loadbang;
#X obj 335 105 r _decay;
#X text 405 105 needs to be in 1000 = range 1-2000 decay (may need
to swap with x);
#X msg 295 82 500;
#X connect 0 0 1 0;
#X connect 0 0 3 0;
#X connect 1 0 2 0;
#X connect 2 0 13 0;
#X connect 3 0 9 0;
#X connect 3 0 4 0;
#X connect 4 0 5 0;
#X connect 5 0 6 0;
#X connect 6 0 7 0;
#X connect 6 0 7 1;
#X connect 7 0 8 0;
#X connect 7 0 8 1;
#X connect 8 0 2 1;
#X connect 9 0 6 0;
#X connect 10 0 5 1;
#X connect 12 0 0 0;
#X connect 14 0 17 0;
#X connect 15 0 10 0;
#X connect 17 0 10 0;
